<?xml version="1.0" standalone="no"?>
<!DOCTYPE svg PUBLIC "-//W3C//DTD SVG 20010904//EN"
 "http://www.w3.org/TR/2001/REC-SVG-20010904/DTD/svg10.dtd">
<svg version="1.0" xmlns="http://www.w3.org/2000/svg"
 width="300.000000pt" height="300.000000pt" viewBox="0 0 300.000000 300.000000"
 preserveAspectRatio="xMidYMid meet">
<metadata>
Created by potrace 1.10, written by Peter Selinger 2001-2011
</metadata>
<g transform="translate(0.000000,300.000000) scale(0.100000,-0.100000)"
fill="#000000" stroke="none">
<path d="M1381 2394 c-227 -49 -405 -232 -443 -455 l-12 -69 -83 0 -83 0 0
-55 0 -55 90 0 90 0 0 -27 c1 -96 107 -270 210 -345 174 -127 387 -152 579
-67 l45 20 48 -48 c37 -37 45 -50 36 -60 -9 -11 2 -27 52 -78 l63 -64 129 -3
c70 -2 128 -1 128 2 0 3 -58 63 -129 134 -106 105 -130 125 -138 112 -7 -14
-15 -9 -51 27 l-43 43 36 38 c121 128 176 294 155 464 -9 66 -43 177 -61 197
-6 6 -25 -6 -50 -31 l-41 -41 17 -49 c39 -113 28 -252 -27 -357 -18 -33 -59
-84 -98 -121 -54 -50 -82 -68 -141 -89 -175 -63 -337 -31 -473 93 -55 51 -116
153 -132 223 l-6 27 114 0 113 0 40 -85 c22 -46 43 -83 47 -82 7 2 27 21 436
411 l274 261 -86 3 c-47 1 -125 1 -172 0 l-87 -3 37 -43 c20 -24 36 -47 36
-51 0 -5 -39 -45 -87 -91 -49 -46 -141 -135 -205 -197 l-117 -114 -22 50 -21
51 -157 1 c-86 0 -177 0 -203 -1 -47 -1 -58 6 -39 26 5 5 17 38 26 73 41 161
144 282 301 358 39 18 88 36 110 38 21 2 39 4 39 5 0 6 96 10 123 5 l32 -6
-36 -57 c-20 -31 -45 -66 -55 -77 -19 -19 -19 -19 -19 6 0 15 -9 38 -20 52
-18 23 -23 24 -61 16 -75 -17 -179 -78 -240 -140 -33 -33 -59 -67 -59 -75 0
-8 -4 -14 -8 -14 -19 0 -64 -144 -53 -173 10 -25 11 -24 35 63 28 101 106 199
207 262 24 16 143 58 160 58 5 0 10 -42 11 -93 l3 -93 94 143 c51 79 91 146
89 149 -13 12 -188 11 -247 -2z m589 -172 c0 -4 -24 -29 -54 -57 -30 -27 -136
-129 -236 -225 -242 -233 -293 -280 -305 -280 -6 0 -20 19 -33 43 -48 89 -52
92 -165 94 -73 2 -109 -1 -130 -12 -38 -19 -65 -19 -108 -1 -19 8 -53 13 -77
12 -39 -2 -74 15 -59 30 11 11 172 25 227 20 30 -3 104 -6 164 -7 l109 -1 43
-44 c23 -24 47 -44 52 -44 14 0 58 36 156 130 294 279 291 275 268 325 -7 14
-7 25 -2 27 17 5 150 -3 150 -10z m35 -199 c15 -60 17 -69 25 -112 9 -51 3
-161 -12 -211 -14 -49 -79 -180 -89 -180 -5 0 -9 -5 -9 -11 0 -6 -16 -27 -35
-47 -19 -20 -35 -45 -35 -54 0 -28 51 -79 104 -103 32 -14 73 -46 111 -86 103
-110 103 -102 3 -98 l-86 4 -46 46 c-25 26 -46 56 -46 67 0 24 -64 98 -101
117 -20 11 -29 11 -38 2 -6 -6 -11 -8 -11 -3 0 4 -12 1 -27 -7 -47 -24 -100
-38 -171 -44 -223 -19 -446 110 -532 307 -6 14 -20 42 -31 63 -23 45 -23 43
-3 51 29 11 62 -4 67 -32 22 -105 136 -236 254 -293 134 -64 349 -49 449 32 6
5 13 7 15 4 6 -5 72 57 119 112 19 22 48 74 64 114 25 62 29 89 30 169 1 54
-5 116 -13 142 -15 54 -10 78 18 78 12 0 21 -9 26 -27z m-975 -273 c0 -5 -13
-10 -29 -10 -17 0 -33 5 -36 10 -4 6 8 10 29 10 20 0 36 -4 36 -10z"/>
</g>
</svg>
